#!OML:ASF F:\VICON\USERDATA\INSTALL\rory3\rory3.ASF
:FULLY-SPECIFIED
:DEGREES
811
root 1.24213 18.1797 2.79803 -4.84258 -8.32531 -355.964
lowerback 9.65339 1.58114 -0.847025
upperback -0.247932 2.04517 0.640208
thorax -5.73105 1.04032 0.849625
lowerneck -21.8601 -4.87778 -12.4238
upperneck 31.2913 -5.34933 8.29092
head 15.2094 -2.61998 4.58746
rclavicle -2.18166e-014 1.59028e-015
rhumerus -33.9318 -8.41274 -81.0094
rradius 32.7847
rwrist 6.23854
rhand -14.0418 7.6687
rfingers 7.12502
rthumb 12.0888 -21.9621
lclavicle -2.18166e-014 1.59028e-015
lhumerus -34.7267 6.11429 83.0428
lradius 29.3155
lwrist -9.15438
lhand -15.0521 27.8752
lfingers 7.12502
lthumb 11.1145 57.5608
rfemur -6.82013 -13.2867 12.7437
rtibia 43.3548
rfoot -9.33527 -30.3418
rtoes 35.902
lfemur 8.10485 -0.699265 -27.3965
ltibia 2.38542e-015
lfoot 1.18478 1.99482
ltoes -0.166126
812
root 1.25435 18.1781 2.80696 -4.88148 -7.80889 -355.985
lowerback 9.69801 1.5502 -0.947859
upperback -0.246861 1.99352 0.663057
thorax -5.75828 1.01825 0.936563
lowerneck -21.8952 -4.85689 -12.4343
upperneck 31.2103 -5.33445 8.38108
head 15.1809 -2.59912 4.62807
rclavicle -1.12065e-014 7.95139e-016
rhumerus -33.7764 -8.29008 -81.1877
rradius 32.6404
rwrist 6.28582
rhand -14.1311 8.2791
rfingers 7.12502
rthumb 12.0027 -21.3567
lclavicle -1.12065e-014 7.95139e-016
lhumerus -34.8831 5.32664 83.4218
lradius 29.299
lwrist -7.42715
lhand -17.2321 26.3632
lfingers 7.12502
lthumb 9.01137 56.1507
rfemur -6.86414 -12.9673 12.5951
rtibia 43.7614
rfoot -8.95219 -28.4455
rtoes 31.8617
lfemur 8.17713 -0.856851 -27.4295
ltibia -2.14687e-014
lfoot 1.30552 1.51272
ltoes -1.01732
813
root 1.26658 18.1775 2.81889 -4.95141 -7.42692 -355.894
lowerback 9.72934 1.55553 -1.1524
upperback -0.22439 1.97688 0.662214
thorax -5.759 1.01591 1.05265
lowerneck -22.0298 -4.86035 -12.3622
upperneck 31.1844 -5.32436 8.32124
head 15.1927 -2.59039 4.5903
rclavicle -3.0501e-014 -1.59028e-014
rhumerus -33.6752 -8.28697 -81.3373
rradius 32.6634
rwrist 6.55748
rhand -13.9303 8.42668
rfingers 7.12502
rthumb 12.1963 -21.1977
lclavicle -3.0501e-014 -1.59028e-014
lhumerus -35.0103 5.57979 83.3097
lradius 29.3281
lwrist -7.89932
lhand -17.275 25.9737
lfingers 7.12502
lthumb 8.96996 55.763
rfemur -6.87969 -12.331 12.3695
rtibia 44.0613
rfoot -9.30947 -26.5346
rtoes 28.9683
lfemur 8.27597 -0.868146 -27.5704
ltibia 1.59028e-015
lfoot 1.32797 1.08188
ltoes -1.37117
814
root 1.27981 18.1768 2.8363 -4.9634 -7.09256 -355.809
lowerback 9.71212 1.57957 -1.30514
upperback -0.233432 1.99102 0.650679
thorax -5.76419 1.02729 1.1247
lowerneck -22.0273 -4.88507 -12.3003
upperneck 31.1256 -5.35382 8.24595
head 15.1641 -2.60387 4.53817
rclavicle -1.70458e-014 -2.46493e-014
rhumerus -33.6054 -8.19126 -81.5015
rradius 32.7075
rwrist 6.75387
rhand -13.8878 8.39686
rfingers 7.12502
rthumb 12.2373 -21.2251
lclavicle -1.70458e-014 -2.46493e-014
lhumerus -35.144 6.16787 83.0633
lradius 29.2376
lwrist -8.7046
lhand -17.1675 25.5515
lfingers 7.12502
lthumb 9.07372 55.3363
rfemur -6.89842 -11.7111 12.1587
rtibia 44.2605
rfoot -9.61706 -24.5488
rtoes 26.5946
lfemur 8.33921 -0.837432 -27.7188
ltibia 7.95139e-016
lfoot 1.25416 0.752677
ltoes -1.08671
815
root 1.29121 18.1796 2.84848 -4.91197 -6.60789 -355.865
lowerback 9.73677 1.57437 -1.30457
upperback -0.269517 1.98414 0.653178
thorax -5.81595 1.02439 1.12684
lowerneck -21.9321 -4.95663 -12.3055
upperneck 31.0319 -5.47436 8.2727
head 15.1178 -2.65101 4.52255
rclavicle -2.19409e-014 -1.35174e-014
rhumerus -33.5238 -8.15626 -81.6498
rradius 32.6922
rwrist 6.8442
rhand -14.0954 8.50808
rfingers 7.12502
rthumb 12.0371 -21.1257
lclavicle -2.19409e-014 -1.35174e-014
lhumerus -35.1861 6.22484 82.989
lradius 29.1228
lwrist -8.99276
lhand -17.151 25.8626
lfingers 7.12502
lthumb 9.08967 55.6468
rfemur -6.9107 -11.1757 12.1277
rtibia 44.3858
rfoot -10.0558 -22.6229
rtoes 23.9001
lfemur 8.34472 -0.976366 -27.7192
ltibia 8.74653e-015
lfoot 1.20419 0.401121
ltoes -1.03028
816
root 1.29968 18.1791 2.85646 -4.92011 -6.16367 -355.875
lowerback 9.78629 1.55489 -1.38469
upperback -0.248079 1.94872 0.659424
thorax -5.8232 1.00931 1.18274
lowerneck -22.0052 -4.98772 -12.2991
upperneck 30.9275 -5.52364 8.32393
head 15.0946 -2.65973 4.5292
rclavicle -2.22266e-014 2.38542e-015
rhumerus -33.3884 -8.08971 -81.8157
rradius 32.6838
rwrist 6.92155
rhand -14.2288 8.62495
rfingers 7.12502
rthumb 11.9085 -21.0164
lclavicle -2.22266e-014 2.38542e-015
lhumerus -35.1067 5.98885 83.0447
lradius 28.9884
lwrist -8.92174
lhand -17.0848 26.2709
lfingers 7.12502
lthumb 9.15351 56.0522
rfemur -6.89661 -10.5515 12.0571
rtibia 44.4441
rfoot -10.9676 -20.8179
rtoes 22.2462
lfemur 8.37511 -1.06633 -27.749
ltibia 0
lfoot 1.1669 0.04321
ltoes -0.900175
817
root 1.30704 18.1766 2.8626 -4.95765 -5.82155 -355.886
lowerback 9.87759 1.5236 -1.48127
upperback -0.222583 1.89591 0.680929
thorax -5.85015 0.98643 1.26558
lowerneck -22.1222 -4.93884 -12.2423
upperneck 30.8091 -5.45222 8.33523
head 15.0538 -2.61565 4.53309
rclavicle 2.81405e-014 7.15625e-015
rhumerus -33.2697 -7.96773 -82.0053
rradius 32.7482
rwrist 7.04299
rhand -14.1673 8.71714
rfingers 7.12502
rthumb 11.9678 -20.9207
lclavicle 2.81405e-014 7.15625e-015
lhumerus -35.0708 6.1707 82.9045
lradius 28.9247
lwrist -9.6488
lhand -17.1437 25.6138
lfingers 7.12502
lthumb 9.09671 55.3976
rfemur -6.9118 -9.97239 11.9963
rtibia 44.447
rfoot -11.6584 -19.0647
rtoes 21.0425
lfemur 8.435 -1.05223 -27.759
ltibia 3.18055e-015
lfoot 1.14333 -0.319001
ltoes -0.857056
818
root 1.31475 18.1774 2.86642 -4.8871 -5.48114 -356.057
lowerback 9.94937 1.49955 -1.43352
upperback -0.284297 1.87269 0.749302
thorax -5.95571 0.975642 1.31122
lowerneck -22.1765 -4.90848 -12.1819
upperneck 30.8342 -5.40587 8.28635
head 15.0667 -2.59432 4.51189
rclavicle 4.08751e-015 1.19271e-014
rhumerus -33.2394 -7.89832 -82.1628
rradius 32.8519
rwrist 7.14504
rhand -14.0982 8.46478
rfingers 7.12502
rthumb 12.0345 -21.1692
lclavicle 4.08751e-015 1.19271e-014
lhumerus -35.2406 6.37826 82.7639
lradius 29.0039
lwrist -10.4756
lhand -16.9743 24.7527
lfingers 7.12502
lthumb 9.26017 54.5294
rfemur -7.03495 -9.39969 12.1721
rtibia 44.392
rfoot -12.1649 -17.5766
rtoes 19.3086
lfemur 8.39496 -1.06432 -27.5934
ltibia 1.59028e-014
lfoot 1.12489 -0.662363
ltoes -0.965437
819
root 1.32466 18.1743 2.87472 -4.82185 -5.10207 -356.114
lowerback 9.93032 1.47594 -1.41831
upperback -0.318444 1.843 0.742776
thorax -5.97915 0.96089 1.30031
lowerneck -22.2762 -4.91805 -12.0541
upperneck 30.8802 -5.42513 8.19139
head 15.1044 -2.59864 4.44674
rclavicle -2.41648e-014 7.15625e-015
rhumerus -33.2218 -7.87443 -82.3747
rradius 32.9818
rwrist 7.1033
rhand -14.1307 8.06095
rfingers 7.12502
rthumb 12.003 -21.5749
lclavicle -2.41648e-014 7.15625e-015
lhumerus -35.4503 6.28076 82.7435
lradius 29.1113
lwrist -10.552
lhand -16.9156 24.8699
lfingers 7.12502
lthumb 9.31682 54.644
rfemur -7.11035 -8.84956 12.2069
rtibia 44.2869
rfoot -12.8283 -16.1978
rtoes 17.5697
lfemur 8.36877 -1.10208 -27.5732
ltibia -3.97569e-015
lfoot 1.09339 -0.976166
ltoes -0.814748
820
root 1.33379 18.1686 2.888 -4.82663 -4.71633 -356.075
lowerback 9.93846 1.43569 -1.47467
upperback -0.337935 1.78023 0.701399
thorax -6.00248 0.931388 1.29779
lowerneck -22.2338 -4.92664 -11.9291
upperneck 30.7698 -5.46182 8.12335
head 15.0415 -2.60683 4.3834
rclavicle -1.40392e-014 -4.77083e-015
rhumerus -33.2385 -7.80274 -82.5821
rradius 33.099
rwrist 6.94753
rhand -14.0957 8.03468
rfingers 7.12502
rthumb 12.0368 -21.5992
lclavicle -1.40392e-014 -4.77083e-015
lhumerus -35.6233 6.41507 82.5759
lradius 29.1352
lwrist -10.8676
lhand -16.7964 24.9687
lfingers 7.12502
lthumb 9.43181 54.7377
rfemur -7.06479 -8.37163 12.1051
rtibia 44.143
rfoot -13.4716 -14.933
rtoes 14.1793
lfemur 8.42233 -1.12834 -27.6632
ltibia 1.11319e-014
lfoot 1.04188 -1.31489
ltoes -0.770908
821
root 1.3379 18.1661 2.89972 -4.86129 -4.35924 -356.012
lowerback 9.98845 1.41297 -1.64745
upperback -0.33795 1.72869 0.698105
thorax -6.03417 0.911537 1.39837
lowerneck -22.2218 -4.93091 -11.9862
upperneck 30.7004 -5.46687 8.19417
head 15.0125 -2.6045 4.42003
rclavicle -1.90709e-014 2.38542e-015
rhumerus -33.2079 -7.69066 -82.7574
rradius 33.2052
rwrist 6.83737
rhand -14.0807 7.95069
rfingers 7.12502
rthumb 12.0513 -21.6823
lclavicle -1.90709e-014 2.38542e-015
lhumerus -35.6589 6.52072 82.4856
lradius 29.0331
lwrist -10.9774
lhand -16.7677 25.0912
lfingers 7.12502
lthumb 9.4595 54.8589
rfemur -7.00817 -7.81679 12.0203
rtibia 43.9841
rfoot -14.0483 -14.0955
rtoes 8.46634
lfemur 8.50732 -1.12232 -27.7548
ltibia 1.11319e-014
lfoot 0.984291 -1.65519
ltoes -0.800619
822
root 1.3405 18.1608 2.90733 -4.86534 -4.03255 -356.034
lowerback 9.98892 1.40653 -1.75184
upperback -0.303854 1.70762 0.694527
thorax -6.00074 0.903859 1.45702
lowerneck -22.3222 -4.94361 -11.9964
upperneck 30.7073 -5.50415 8.29603
head 15.0473 -2.60502 4.45885
rclavicle 6.08778e-016 7.15625e-015
rhumerus -33.093 -7.61967 -82.9879
rradius 33.2788
rwrist 6.65646
rhand -14.2697 7.84277
rfingers 7.12502
rthumb 11.8691 -21.8008
lclavicle 6.08778e-016 7.15625e-015
lhumerus -35.5685 6.30823 82.5661
lradius 28.8178
lwrist -10.0662
lhand -17.02 25.5477
lfingers 7.12502
lthumb 9.216 55.3263
rfemur -7.00282 -7.27359 12.0563
rtibia 43.7977
rfoot -14.5643 -13.4593
rtoes 3.91834
lfemur 8.55076 -1.09938 -27.7368
ltibia -1.66979e-014
lfoot 0.912161 -2.01439
ltoes -0.960025
823
root 1.34402 18.1538 2.91753 -4.84834 -3.75313 -356.127
lowerback 9.92906 1.40779 -1.72465
upperback -0.279015 1.71164 0.66268
thorax -5.93901 0.903913 1.4093
lowerneck -22.3574 -4.98462 -11.9111
upperneck 30.6922 -5.60556 8.32981
head 15.0601 -2.63165 4.4378
rclavicle 1.07219e-014 4.77083e-015
rhumerus -33.0512 -7.52375 -83.2602
rradius 33.3496
rwrist 6.24015
rhand -14.572 7.69525
rfingers 7.12502
rthumb 11.5775 -21.965
lclavicle 1.07219e-014 4.77083e-015
lhumerus -35.5587 6.03078 82.6428
lradius 28.6056
lwrist -8.77474
lhand -17.7868 25.703
lfingers 7.12502
lthumb 8.47606 55.5129
rfemur -6.98952 -6.75458 12.1543
rtibia 43.5581
rfoot -15.1197 -12.5511
rtoes 3.38447
lfemur 8.5782 -1.03822 -27.6394
ltibia -1.27222e-014
lfoot 0.862813 -2.38352
ltoes -0.838113
824
root 1.3476 18.1478 2.92865 -4.8442 -3.51734 -356.136
lowerback 9.88726 1.43035 -1.76809
upperback -0.25876 1.73604 0.640079
thorax -5.89564 0.916437 1.40755
lowerneck -22.353 -5.02512 -11.8787
upperneck 30.6705 -5.66555 8.2979
head 15.055 -2.65688 4.40541
rclavicle 2.91716e-014 1.27222e-014
rhumerus -33.0296 -7.60868 -83.3729
rradius 33.4122
rwrist 6.23831
rhand -14.7145 7.62283
rfingers 7.12502
rthumb 11.4401 -22.045
lclavicle 2.91716e-014 1.27222e-014
lhumerus -35.5483 6.28954 82.4951
lradius 28.4272
lwrist -8.92902
lhand -18.3844 24.9739
lfingers 7.12502
lthumb 7.89936 54.8063
rfemur -6.96558 -6.30607 12.1569
rtibia 43.238
rfoot -15.6445 -11.8669
rtoes 2.35132
lfemur 8.62322 -0.924559 -27.6302
ltibia -6.36111e-015
lfoot 0.776277 -2.73451
ltoes -0.788146
